<svg xmlns="http://www.w3.org/2000/svg" xmlns:xlink="http://www.w3.org/1999/xlink" width="64" height="64" viewBox="0 0 64 64" id="scissors"><defs><path id="a" d="M.06 64V.04H64V64z"></path></defs><g fill="none" fill-rule="evenodd"><g><g><mask id="b" fill="#fff"><use xlink:href="#a"></use></mask><path fill="#B85756" d="M64 32c0 17.673-14.327 32-32 32C14.327 64 0 49.673 0 32 0 14.327 14.327 0 32 0c17.673 0 32 14.327 32 32" mask="url(#b)"></path></g><path fill="#974D4C" d="M44 54c-3.384 0-6.271-2.105-7.44-5.074a10.994 10.994 0 0 1-1.035-4.667c0-1.68-1.434-3.272-3.525-5.079.363-.314.746-.635 1.145-.963 1.451 1.395 2.38 2.69 2.38 4.042 0 1.895.476 3.466 1.035 4.667C37.729 49.895 40.616 52 44 52a8.001 8.001 0 0 0 7.938-7A8 8 0 0 1 44 54m3.874-9A4.01 4.01 0 0 0 44 42a4.008 4.008 0 0 0-3.874 3A4.004 4.004 0 0 1 44 40a4.004 4.004 0 0 1 3.874 5m-20.162-9.358C22.276 31.094 16 24.808 16 14l.08.086c.798 10.215 7.395 16.099 12.687 20.428l-.58.618s-.144.207-.475.51"></path><path fill="#DEDECA" d="M44 48c-2.206 0-4-1.794-4-4s1.794-4 4-4 4 1.794 4 4-1.794 4-4 4m0-12c-6.188 0-8.187-2.868-8.187-2.868L16 12c0 19.062 19.525 24.06 19.525 30.259 0 1.895.476 3.466 1.035 4.667C37.729 49.895 40.616 52 44 52a8 8 0 0 0 0-16"></path><path fill="#974D4C" d="M20 54a8 8 0 0 1 0-16c4.525 0 6.811-1.534 7.712-2.358 1.553 1.3 3.038 2.457 4.288 3.538-2.091 1.807-3.525 3.399-3.525 5.079 0 1.895-.476 3.466-1.035 4.667C26.271 51.895 23.384 54 20 54m0-12c-2.206 0-4 1.794-4 4s1.794 4 4 4 4-1.794 4-4-1.794-4-4-4m17.563-7.447c-1.256-.713-1.75-1.421-1.75-1.421l-2.875-3.067L48 14c0 9.971-5.342 16.094-10.437 20.553"></path><path fill="#7D4241" d="M32 39.18c-1.25-1.081-2.735-2.238-4.288-3.538.331-.303.475-.51.475-.51l.58-.618c1.661 1.359 3.193 2.564 4.378 3.703-.399.328-.782.649-1.145.963"></path><path fill="#B3B2A4" d="M33.145 38.217c-1.185-1.139-2.717-2.344-4.378-3.703l4.171-4.449 2.875 3.067s.494.708 1.75 1.421c-1.548 1.354-3.073 2.555-4.418 3.664"></path><path fill="#DEDECA" d="M20 48c-2.206 0-4-1.794-4-4s1.794-4 4-4 4 1.794 4 4-1.794 4-4 4zm8.187-14.868S26.187 36 20 36a8 8 0 0 0 0 16c3.384 0 6.271-2.105 7.44-5.074a10.994 10.994 0 0 0 1.035-4.667C28.475 36.06 48 31.062 48 12L28.187 33.132z"></path><path fill="#4C5665" d="M33.5 33a1.5 1.5 0 1 1-3.001-.001A1.5 1.5 0 0 1 33.5 33"></path></g></g></svg>